<?xml version="1.0" encoding="UTF-8"?>
<svg id="Layer_1" data-name="Layer 1" xmlns="http://www.w3.org/2000/svg" viewBox="0 0 800 800">
  <defs>
    <style>
      .cls-1 {
        fill: #b8cdd3;
      }

      .cls-1, .cls-2 {
        stroke-width: 0px;
      }

      .cls-2 {
        fill: #acb8bb;
      }
    </style>
  </defs>
  <rect class="cls-2" x="40" y="40" width="40" height="720"/>
  <rect class="cls-2" x="101.82" y="40" width="40" height="720"/>
  <rect class="cls-2" x="163.64" y="40" width="40" height="720"/>
  <polygon class="cls-2" points="265.45 40 265.45 326.52 225.45 407.16 225.45 40 265.45 40"/>
  <polygon class="cls-2" points="225.45 420.25 265.45 494.9 265.45 760 225.45 760 225.45 420.25"/>
  <polygon class="cls-2" points="327.27 40 327.27 201.88 287.27 282.52 287.27 40 327.27 40"/>
  <polygon class="cls-2" points="287.27 535.62 327.27 610.27 327.27 760 287.27 760 287.27 535.62"/>
  <polygon class="cls-2" points="389.09 40 389.09 77.24 349.09 157.89 349.09 40 389.09 40"/>
  <polygon class="cls-2" points="349.09 650.99 389.09 725.64 389.09 760 349.09 760 349.09 650.99"/>
  <polygon class="cls-1" points="349.1 413.9 389.1 413.9 574.55 760 534.55 760 349.1 413.9"/>
  <polygon class="cls-1" points="287.27 413.9 327.27 413.9 512.73 760 472.73 760 287.27 413.9"/>
  <polygon class="cls-1" points="410.9 413.9 450.9 413.9 636.36 760 596.36 760 410.9 413.9"/>
  <polygon class="cls-1" points="225.45 413.9 265.45 413.9 450.91 760 410.91 760 225.45 413.9"/>
  <polygon class="cls-1" points="472.73 413.9 512.73 413.9 698.18 760 658.18 760 472.73 413.9"/>
  <polygon class="cls-1" points="574.55 413.9 760 760 720 760 534.55 413.9 574.55 413.9"/>
  <polygon class="cls-1" points="760 40 574.55 413.9 534.55 413.9 720 40 760 40"/>
  <polygon class="cls-1" points="698.18 40 512.73 413.9 472.73 413.9 658.18 40 698.18 40"/>
  <polygon class="cls-1" points="512.73 40 327.27 413.9 287.27 413.9 472.73 40 512.73 40"/>
  <polygon class="cls-1" points="574.55 40 389.1 413.9 349.1 413.9 534.55 40 574.55 40"/>
  <polygon class="cls-1" points="636.36 40 450.9 413.9 410.9 413.9 596.36 40 636.36 40"/>
  <polygon class="cls-1" points="760 644.61 760 719.26 720 644.61 596.37 413.9 636.37 413.9 720 569.97 760 644.61"/>
  <polygon class="cls-1" points="760 529.25 760 603.89 720 529.25 658.19 413.9 698.19 413.9 720 454.6 760 529.25"/>
  <polygon class="cls-1" points="760 413.9 760 488.53 720.01 413.9 760 413.9"/>
  <polygon class="cls-1" points="760 333.28 760 413.9 720.01 413.9 760 333.28"/>
  <polygon class="cls-1" points="760 208.64 760 289.29 720 369.93 698.19 413.9 658.19 413.9 720 289.29 760 208.64"/>
  <polygon class="cls-1" points="760 84.01 760 164.65 720 245.3 636.37 413.9 596.37 413.9 720 164.65 760 84.01"/>
  <polygon class="cls-1" points="450.91 40 265.45 413.9 225.45 413.9 410.91 40 450.91 40"/>
</svg>